<?xml version="1.0" encoding="utf-8"?>
<!-- Generator: Adobe Illustrator 27.3.1, SVG Export Plug-In . SVG Version: 6.00 Build 0)  -->
<svg version="1.1" id="Layer_1" xmlns="http://www.w3.org/2000/svg" xmlns:xlink="http://www.w3.org/1999/xlink" x="0px" y="0px"
	 viewBox="0 0 800 800" style="enable-background:new 0 0 800 800;" xml:space="preserve">
<style type="text/css">
	.st0{fill:#E6E9FF;}
	.st1{fill:#FFFFFF;}
</style>
<path class="st0" d="M560.7,171.1c-24.4-28-39.1-64.5-39.1-104.5H491C498.9,110.3,524.8,147.8,560.7,171.1z"/>
<path class="st0" d="M277.4,396.8c-53,0-96.2,43.2-96.2,96.3c0,37,21,69.2,51.7,85.3c-11.4-15.8-18.2-35.1-18.2-56.2
	c0-53.1,43.1-96.3,96.2-96.3c9.9,0,19.5,1.7,28.5,4.5v-117c-9.3-1.2-18.7-2-28.5-2c-1.7,0-3.2,0.2-5,0.2v89.8
	C296.7,398.5,287.3,396.8,277.4,396.8z"/>
<path class="st0" d="M647.5,222.5v89c-59.4,0-114.4-19-159.3-51.2v233c0,116.2-94.5,211-210.8,211c-44.9,0-86.6-14.2-120.8-38.2
	c38.5,41.3,93.4,67.3,154.2,67.3c116.1,0,210.8-94.6,210.8-211v-233c44.8,32.2,99.9,51.2,159.3,51.2V226.1
	C669.3,226.1,658.2,224.9,647.5,222.5z"/>
<path class="st1" d="M488.2,493.3v-233c44.9,32.2,99.9,51.2,159.3,51.2v-89c-34.3-7.3-64.5-25.8-86.8-51.4
	c-35.9-23.4-61.7-60.8-69.9-104.5H407l-0.2,459.2c-1.9,51.4-44.2,92.7-96,92.7c-32.2,0-60.5-15.9-78.1-40.1
	c-30.6-16.3-51.7-48.3-51.7-85.3c0-53.1,43.1-96.3,96.2-96.3c9.9,0,19.5,1.7,28.5,4.5v-89.8c-113.8,2.5-205.7,96-205.7,210.7
	c0,55.4,21.5,105.9,56.6,143.6c34.2,24,75.9,38.2,120.8,38.2C393.5,704.2,488.2,609.5,488.2,493.3z"/>
</svg>
