<?xml version="1.0" encoding="utf-8"?>
<!-- Generator: Adobe Illustrator 27.3.1, SVG Export Plug-In . SVG Version: 6.00 Build 0)  -->
<svg version="1.1" id="katman_1" xmlns="http://www.w3.org/2000/svg" xmlns:xlink="http://www.w3.org/1999/xlink" x="0px" y="0px"
	 viewBox="0 0 109.7 16.3" style="enable-background:new 0 0 109.7 16.3;" xml:space="preserve">
<style type="text/css">
	.st0{fill:#FFFFFF;}
	.st1{fill:#00B67A;}
	.st2{fill:#005128;}
</style>
<g id="trustpilot-logo">
	<g>
		<path id="Shape" class="st0" d="M15.1,6.3h5.2v1h-2v5.4h-1.2V7.3h-2V6.3L15.1,6.3z M20,8h1v0.9l0,0c0-0.1,0.1-0.2,0.2-0.4
			s0.2-0.2,0.3-0.3C21.6,8.1,21.8,8,21.9,8c0.1-0.1,0.3-0.1,0.5-0.1c0.1,0,0.2,0,0.2,0h0.1v1c-0.1,0-0.1,0-0.2,0s-0.1,0-0.2,0
			c-0.2,0-0.3,0-0.5,0.1s-0.3,0.2-0.4,0.3c-0.1,0.1-0.2,0.3-0.3,0.5C21,10,21,10.2,21,10.5v2.2h-1V8L20,8z M27.4,12.7h-1v-0.6l0,0
			c-0.1,0.2-0.3,0.4-0.6,0.6c-0.2,0.1-0.5,0.2-0.8,0.2c-0.6,0-1-0.1-1.3-0.5s-0.4-0.8-0.4-1.4V8.1h1v2.8c0,0.4,0.1,0.7,0.2,0.9
			c0.2,0.2,0.4,0.3,0.7,0.3c0.2,0,0.4,0,0.5-0.1s0.3-0.2,0.3-0.3c0.1-0.1,0.2-0.2,0.2-0.4s0.1-0.3,0.1-0.5V8.1h1L27.4,12.7
			L27.4,12.7z M29.1,11.2c0,0.3,0.1,0.5,0.3,0.6s0.4,0.2,0.7,0.2c0.1,0,0.2,0,0.3,0s0.2,0,0.3-0.1c0.1,0,0.2-0.1,0.3-0.2
			s0.1-0.2,0.1-0.3c0-0.1-0.1-0.2-0.1-0.3c-0.1-0.1-0.2-0.1-0.3-0.2c-0.1,0-0.3-0.1-0.5-0.1s-0.4-0.1-0.5-0.1
			c-0.2,0-0.4-0.1-0.5-0.2s-0.3-0.1-0.5-0.2c-0.1-0.1-0.3-0.2-0.3-0.4c-0.1-0.2-0.1-0.4-0.1-0.6c0-0.3,0.1-0.5,0.2-0.6
			s0.3-0.3,0.5-0.4s0.4-0.2,0.6-0.2c0.2,0,0.5-0.1,0.7-0.1s0.5,0,0.7,0.1c0.2,0,0.4,0.1,0.6,0.2c0.2,0.1,0.3,0.3,0.4,0.4
			c0.1,0.2,0.2,0.4,0.2,0.7h-1.1c0-0.2-0.2-0.4-0.3-0.5c-0.3-0.1-0.5-0.2-0.7-0.2c-0.1,0-0.2,0-0.3,0s-0.2,0-0.3,0.1
			c-0.1,0-0.2,0.1-0.2,0.1C29.2,9,29.2,9,29.2,9.1s0,0.2,0.1,0.3c0.1,0.1,0.2,0.1,0.3,0.2c0.1,0,0.3,0.1,0.5,0.1s0.4,0.1,0.6,0.1
			c0.2,0,0.4,0.1,0.5,0.2c0.2,0.1,0.3,0.1,0.5,0.2s0.3,0.2,0.3,0.4c0.1,0.2,0.1,0.3,0.1,0.6c0,0.3-0.1,0.5-0.2,0.7
			c-0.1,0.2-0.3,0.3-0.5,0.5c-0.1,0.2-0.3,0.3-0.5,0.3s-0.5,0.1-0.7,0.1c-0.3,0-0.6,0-0.8-0.1s-0.5-0.2-0.6-0.3
			c-0.2-0.1-0.3-0.3-0.4-0.5c-0.2-0.2-0.3-0.4-0.3-0.7H29.1L29.1,11.2z M32.5,8h0.8V6.7h1v1.4h0.9v0.8h-0.9v2.5c0,0.1,0,0.2,0,0.3
			c0,0.1,0,0.1,0.1,0.2s0.1,0.1,0.1,0.1c0.1,0,0.2,0,0.3,0s0.1,0,0.2,0c0.1,0,0.1,0,0.2,0v0.7c-0.1,0-0.2,0-0.3,0s-0.2,0-0.3,0
			c-0.3,0-0.5,0-0.6-0.1c-0.2,0-0.3-0.1-0.4-0.2c-0.1-0.1-0.2-0.2-0.2-0.4c0-0.1-0.1-0.3-0.1-0.5V8.8h-0.8V8L32.5,8z M35.9,8h1v0.7
			l0,0c0.1-0.3,0.3-0.5,0.6-0.6C37.8,8,38,7.9,38.3,7.9c0.4,0,0.7,0.1,1,0.2c0.3,0.1,0.5,0.3,0.7,0.5s0.3,0.5,0.4,0.8
			c0.1,0.3,0.1,0.6,0.1,1c0,0.3,0,0.6-0.1,0.9s-0.2,0.5-0.4,0.8c-0.2,0.2-0.4,0.4-0.6,0.5c-0.3,0.1-0.5,0.2-0.9,0.2
			c-0.1,0-0.3,0-0.4,0c-0.1,0-0.3-0.1-0.4-0.1c-0.1-0.1-0.3-0.1-0.4-0.2c-0.1-0.1-0.2-0.2-0.3-0.3l0,0v2.3h-1L35.9,8L35.9,8z
			 M39.5,10.4c0-0.2,0-0.4-0.1-0.6s-0.1-0.4-0.2-0.5S39,9,38.8,8.9s-0.3-0.1-0.6-0.1c-0.4,0-0.8,0.1-1,0.4s-0.3,0.7-0.3,1.2
			c0,0.2,0,0.5,0.1,0.6c0.1,0.2,0.1,0.4,0.3,0.5c0.1,0.1,0.2,0.3,0.4,0.3c0.2,0.1,0.3,0.1,0.5,0.1s0.4,0,0.6-0.1
			c0.2-0.1,0.3-0.2,0.4-0.4c0.1-0.2,0.2-0.3,0.2-0.5C39.4,10.8,39.5,10.6,39.5,10.4z M41.3,6.3h1v1h-1V6.3z M41.3,8h1v4.7h-1V8z
			 M43.2,6.3h1v6.4h-1V6.3z M47.3,12.8c-0.4,0-0.7-0.1-1-0.2s-0.5-0.3-0.7-0.5s-0.4-0.5-0.5-0.8s-0.2-0.6-0.2-1s0.1-0.7,0.2-1
			c0.1-0.3,0.3-0.6,0.5-0.8S46,8.1,46.3,8c0.3-0.1,0.6-0.2,1-0.2s0.7,0.1,1,0.2c0.3,0.1,0.5,0.3,0.7,0.5s0.4,0.5,0.5,0.8
			s0.2,0.6,0.2,1s-0.1,0.7-0.2,1c-0.1,0.3-0.3,0.6-0.5,0.8s-0.4,0.4-0.7,0.5S47.7,12.8,47.3,12.8z M47.3,12c0.2,0,0.4,0,0.6-0.1
			c0.2-0.1,0.3-0.2,0.4-0.4c0.1-0.2,0.2-0.3,0.2-0.5s0.1-0.4,0.1-0.6s0-0.4-0.1-0.6c0-0.2-0.1-0.4-0.2-0.5S48.1,9,47.9,8.9
			s-0.4-0.1-0.6-0.1c-0.2,0-0.4,0-0.6,0.1c-0.2,0.1-0.3,0.2-0.4,0.4c-0.1,0.2-0.2,0.3-0.2,0.5S46,10.2,46,10.4s0,0.4,0.1,0.6
			c0,0.2,0.1,0.4,0.2,0.5c0.1,0.2,0.2,0.3,0.4,0.4C46.9,11.9,47.1,12,47.3,12z M50,8h0.8V6.7h1v1.4h0.9v0.8h-0.9v2.5
			c0,0.1,0,0.2,0,0.3c0,0.1,0,0.1,0.1,0.2S52,12,52,12c0.1,0,0.2,0,0.3,0s0.1,0,0.2,0c0.1,0,0.1,0,0.2,0v0.7c-0.1,0-0.2,0-0.3,0
			s-0.2,0-0.3,0c-0.3,0-0.5,0-0.6-0.1c-0.2,0-0.3-0.1-0.4-0.2c-0.1-0.1-0.2-0.2-0.2-0.4c0-0.1-0.1-0.3-0.1-0.5V8.8H50V8L50,8z"/>
		<g id="Star">
			<polygon id="Path" class="st1" points="13.9,6.3 9.2,6.3 7.8,1.8 6.3,6.3 1.7,6.3 5.4,9 4,13.5 7.8,10.7 11.5,13.5 10.1,9 			"/>
			<polygon id="Path_00000139974370896774244940000013599419466242447510_" class="st2" points="10.4,10 10.1,9 7.8,10.7 			"/>
		</g>
	</g>
	<g>
		<rect id="Rectangle" x="57" y="4.2" class="st1" width="9.6" height="9.6"/>
		
			<rect id="Rectangle_00000119823381696065812290000006309620969489227403_" x="67.3" y="4.2" class="st1" width="9.6" height="9.6"/>
		
			<rect id="Rectangle_00000111193577153650357570000000971353195221845171_" x="77.7" y="4.2" class="st1" width="9.6" height="9.6"/>
		<rect id="Rectangle_00000008833768892528033700000000322006702697863864_" x="88" y="4.2" class="st1" width="9.6" height="9.6"/>
		
			<rect id="Rectangle_00000134962926880305233990000003318531366453452990_" x="98.4" y="4.2" class="st1" width="9.6" height="9.6"/>
		<polygon id="Rectangle_00000044876543712720924350000008132246518786235026_" class="st1" points="98.4,4.2 103.2,4.2 103.2,13.7 
			98.4,13.7 		"/>
		<path id="Shape_00000004503963772281965500000004689748023012954798_" class="st0" d="M61.7,10.6l1.5-0.4l0.6,1.9L61.7,10.6z
			 M65.1,8.2h-2.6l-0.8-2.4l-0.8,2.4h-2.5l2.1,1.5l-0.8,2.4l2.1-1.5l1.3-0.9L65.1,8.2L65.1,8.2L65.1,8.2L65.1,8.2z"/>
		<path id="Shape_00000062892359206520126170000006215398374882685355_" class="st0" d="M72.1,10.6l1.5-0.4l0.6,1.9L72.1,10.6z
			 M75.4,8.2h-2.6L72,5.8l-0.8,2.4h-2.6l2.1,1.5l-0.8,2.4l2.1-1.5l1.3-0.9L75.4,8.2L75.4,8.2L75.4,8.2L75.4,8.2z"/>
		<path id="Shape_00000041986034659674372480000017210300048664811149_" class="st0" d="M82.5,10.6l1.5-0.4l0.6,1.9L82.5,10.6z
			 M85.8,8.2h-2.6l-0.8-2.4l-0.8,2.4H79l2.1,1.5l-0.7,2.4l2.1-1.5l1.3-0.9L85.8,8.2L85.8,8.2L85.8,8.2L85.8,8.2z"/>
		<path id="Shape_00000155124147350657945740000004241176506388462744_" class="st0" d="M92.8,10.6l1.5-0.4l0.6,1.9L92.8,10.6z
			 M96.2,8.2h-2.6l-0.8-2.4L92,8.2h-2.6l2.1,1.5l-0.8,2.4l2.1-1.5l1.3-0.9L96.2,8.2L96.2,8.2L96.2,8.2L96.2,8.2z"/>
		<path id="Shape_00000131362776327819300620000011855054010791946398_" class="st0" d="M103.2,10.6l1.5-0.4l0.6,1.9L103.2,10.6z
			 M106.5,8.2h-2.6l-0.8-2.4l-0.7,2.4h-2.6l2.1,1.5l-0.8,2.4l2.1-1.5l1.3-0.9L106.5,8.2L106.5,8.2L106.5,8.2L106.5,8.2z"/>
	</g>
</g>
</svg>
