<?xml version="1.0" encoding="utf-8"?>
<!-- Generator: Adobe Illustrator 27.3.1, SVG Export Plug-In . SVG Version: 6.00 Build 0)  -->
<svg version="1.1" id="Layer_1" xmlns="http://www.w3.org/2000/svg" xmlns:xlink="http://www.w3.org/1999/xlink" x="0px" y="0px"
	 viewBox="0 0 800 800" style="enable-background:new 0 0 800 800;" xml:space="preserve">
<style type="text/css">
	.st0{fill-rule:evenodd;clip-rule:evenodd;fill:#FFFFFF;}
</style>
<path class="st0" d="M316.5,237.7c-10.3-5.9-23-5.9-33.3,0.1c-10.3,6-16.6,16.9-16.6,28.8v266.7c0,11.9,6.3,22.9,16.6,28.8
	c10.3,6,23,6,33.3,0.1l233.3-133.3c10.4-5.9,16.8-17,16.8-28.9c0-12-6.4-23-16.8-28.9L316.5,237.7z M466.1,400l-132.8,75.9V324.1
	L466.1,400z"/>
<path class="st0" d="M0,400c0-125,0-187.5,31.8-231.3c10.3-14.1,22.7-26.6,36.9-36.9C112.5,100,175,100,300,100h200
	c125,0,187.5,0,231.3,31.8c14.1,10.3,26.6,22.7,36.9,36.9C800,212.5,800,275,800,400c0,125,0,187.5-31.8,231.3
	c-10.3,14.2-22.7,26.6-36.9,36.9C687.5,700,625,700,500,700H300c-125,0-187.5,0-231.3-31.8c-14.1-10.3-26.6-22.7-36.9-36.9
	C0,587.5,0,525,0,400z M300,166.7h200c64,0,106.6,0.1,138.9,3.6c31.1,3.4,44.6,9.2,53.2,15.5c8.5,6.2,16,13.6,22.1,22.1
	c6.3,8.6,12.1,22.1,15.5,53.2c3.5,32.3,3.6,74.9,3.6,138.9s-0.1,106.6-3.6,138.9c-3.4,31.1-9.2,44.6-15.5,53.2
	c-6.2,8.5-13.6,16-22.1,22.1c-8.6,6.3-22.1,12.1-53.2,15.5c-32.3,3.5-74.9,3.6-138.9,3.6H300c-64,0-106.6-0.1-138.9-3.6
	c-31.1-3.4-44.6-9.2-53.2-15.5c-8.5-6.2-16-13.6-22.1-22.1c-6.3-8.6-12.1-22.1-15.5-53.2c-3.5-32.3-3.6-74.9-3.6-138.9
	s0.1-106.6,3.6-138.9c3.4-31.1,9.2-44.6,15.5-53.2c6.2-8.5,13.6-16,22.1-22.1c8.6-6.3,22.1-12.1,53.2-15.5
	C193.4,166.8,236,166.7,300,166.7z"/>
</svg>
